# xmcd CD database file
#
# Track frame offsets:
#	150
#	26686
#	60943
#	93994
#	123246
#	156165
#	196030
#	222229
#
# Disc length: 3298 seconds
#
# Revision: 0
# Processed by: cddbd v1.5.2PL0 Copyright (c) Steve Scherf et al.
# Submitted via: CDex 1.51
#
DISCID=5f0ce008
DTITLE=Dan Gibson - Solitudes - Colorado Natural Splendor
DYEAR=1999
DGENRE=New Age
TTITLE0=Dawn In The Valley
TTITLE1=Wind Walker
TTITLE2=Gracefully
TTITLE3=Polaris
TTITLE4=The Foothills
TTITLE5=Remembrance
TTITLE6=Pine Forest Repose
TTITLE7=At Rest In The Lee
EXTD=YEAR: 1999
EXTT0=
EXTT1=
EXTT2=
EXTT3=
EXTT4=
EXTT5=
EXTT6=
EXTT7=
PLAYORDER=
